<svg width="113" height="112" viewBox="0 0 113 112" fill="none" xmlns="http://www.w3.org/2000/svg">
<path d="M72.6905 65.5918L72.9079 65.6926H111.502C117.315 29.9365 92.1959 0 56.2701 0C24.2926 0 0 24.117 0 55.7136C0 87.3102 24.7091 111.427 57.3085 111.427C80.5627 111.427 98.42 99.5754 107.759 82.7372L84.7161 72.3453C79.5183 81.6977 69.7687 87.3102 58.1355 87.3102C43.3934 87.3102 32.5993 78.3713 28.8625 65.6926H72.6846V65.5918H72.6905ZM35.3341 34.6984C35.3341 21.996 45.621 11.704 58.2985 11.704C61.7577 11.704 65.0418 12.472 67.9818 13.8486C64.583 15.6624 62.2709 19.2428 62.2709 23.3666C62.2709 29.322 67.0944 34.1489 73.0407 34.1489C76.1558 34.1489 78.9569 32.8196 80.9189 30.6986C81.1483 31.9984 81.2751 33.3337 81.2751 34.6984C81.2751 47.4009 70.9882 57.6928 58.3046 57.6928C45.627 57.6928 35.3401 47.395 35.3401 34.6984H35.3341Z" fill="black"/>
</svg>
