<svg width="210" height="210" viewBox="0 0 210 210" fill="none" xmlns="http://www.w3.org/2000/svg">
<path d="M183.444 157.237L157.238 183.443L183.444 209.648L209.649 183.443L183.444 157.237Z" fill="black"/>
<path d="M104.818 78.6174L78.6129 104.823L104.818 131.028L131.024 104.823L104.818 78.6174Z" fill="black"/>
<path d="M122.829 149.034L104.819 131.034L78.6187 157.234L52.4087 183.444L78.6187 209.644L104.819 183.444L104.829 183.434L104.819 183.444L131.029 209.644L157.229 183.444L122.829 149.034Z" fill="black"/>
<path d="M157.229 26.2044L131.029 0.00439453L104.819 26.2044L104.829 26.2144L104.819 26.2044L78.6187 0.00439453L52.4087 26.2044L78.6187 52.4144L104.819 78.6144L126.239 57.1944L157.229 26.2044Z" fill="black"/>
<path d="M26.2054 157.236L0 183.441L26.2054 209.647L52.4108 183.441L26.2054 157.236Z" fill="black"/>
<path d="M183.437 104.821L157.232 131.026L183.437 157.232L209.643 131.026L183.437 104.821Z" fill="black"/>
<path d="M26.2088 104.819L0.00341797 131.024L26.2088 157.23L52.4142 131.024L26.2088 104.819Z" fill="black"/>
<path d="M183.438 52.4113L157.232 78.6167L183.438 104.822L209.643 78.6167L183.438 52.4113Z" fill="black"/>
<path d="M26.2093 52.4099L0.00390625 78.6152L26.2093 104.821L52.4147 78.6152L26.2093 52.4099Z" fill="black"/>
<path d="M183.438 0.0021444L157.233 26.2075L183.438 52.4129L209.644 26.2075L183.438 0.0021444Z" fill="black"/>
<path d="M26.2099 0.00019127L0.0045166 26.2056L26.2099 52.4109L52.4153 26.2056L26.2099 0.00019127Z" fill="black"/>
</svg>
