<svg width="95" height="95" viewBox="0 0 95 95" fill="none" xmlns="http://www.w3.org/2000/svg">
<path d="M59.1445 8.48486L65.3174 14.6577L71.4883 8.48682L74.3164 5.65771L77.1445 8.48682L86.1416 17.4849L88.9697 20.313L79.9707 29.312L86.1416 35.4839L88.9697 38.312L86.1416 41.1401L79.9688 47.312L86.1416 53.4849L88.9707 56.313L86.1416 59.1411L79.9678 65.313L86.1416 71.4858L88.9707 74.314L86.1416 77.1421L77.1436 86.1401L74.3154 88.9692L71.4873 86.1401L65.3164 79.9683L59.1445 86.1411L56.3174 88.9692L53.4883 86.1421L47.3145 79.9702L41.1445 86.1411L38.3164 88.9692L35.4883 86.1421L29.3105 79.9663L23.1396 86.1392L20.3115 88.9683L17.4834 86.1392L8.48535 77.1411L5.65625 74.313L8.48535 71.4849L14.6572 65.313L5.65723 56.313L8.48535 53.4849L14.6572 47.311L8.48535 41.1392L5.65625 38.311L8.48535 35.4829L14.6562 29.311L8.48535 23.1401L5.65625 20.312L8.48535 17.4839L17.4834 8.48584L20.3115 5.65674L23.1396 8.48584L29.3115 14.6577L35.4883 8.48389L38.3164 5.65674L47.3145 14.6548L53.4883 8.48389L56.3174 5.65674L59.1445 8.48486ZM25.9658 29.311L32.1367 35.4829L34.9648 38.311L25.9639 47.312L32.1367 53.4849L34.9658 56.313L32.1367 59.1411L25.9648 65.312L29.3125 68.6606L41.6572 56.3149L32.6553 47.313L35.4834 44.4849L41.6572 38.3101L29.3125 25.9644L25.9658 29.311ZM52.9648 38.3159L59.1348 44.4849L61.9639 47.313L59.1348 50.1411L52.9658 56.3101L65.3154 68.6597L68.6621 65.313L59.6621 56.313L62.4902 53.4849L68.6621 47.312L62.4902 41.1401L59.6611 38.312L62.4902 35.4839L68.6611 29.312L65.3154 25.9663L52.9648 38.3159Z" fill="#EC104B" stroke="white" stroke-width="8"/>
</svg>
